<?xml version="1.0" standalone="no"?>
<!DOCTYPE svg PUBLIC "-//W3C//DTD SVG 20010904//EN"
 "http://www.w3.org/TR/2001/REC-SVG-20010904/DTD/svg10.dtd">
<svg version="1.0" xmlns="http://www.w3.org/2000/svg"
 width="2048.000000pt" height="2048.000000pt" viewBox="0 0 2048.000000 2048.000000"
 preserveAspectRatio="xMidYMid meet">

<g transform="translate(0.000000,2048.000000) scale(0.100000,-0.100000)"
fill="#000000" stroke="none">
<path d="M13724 13141 c-32 -15 -277 -135 -544 -266 -267 -131 -647 -316 -845
-413 -321 -156 -470 -227 -860 -412 -60 -29 -118 -59 -127 -68 -17 -14 -18
-92 -18 -1369 0 -744 -2 -1353 -4 -1353 -2 0 -92 48 -200 106 -109 58 -199
104 -201 102 -3 -2 53 -35 123 -73 70 -37 161 -87 202 -110 l75 -41 3 -67 3
-67 -316 -157 -316 -158 -150 78 c-82 43 -149 74 -149 70 0 -4 61 -39 135 -78
74 -38 135 -72 135 -75 0 -3 -61 -36 -136 -73 -75 -38 -135 -70 -133 -72 2 -2
68 28 147 66 79 38 147 69 151 69 4 0 128 -64 276 -142 149 -78 314 -164 367
-192 54 -28 98 -54 98 -57 0 -3 -136 -71 -302 -152 -349 -168 -434 -207 -454
-207 -8 0 -14 -4 -14 -8 0 -5 -18 -17 -40 -27 -23 -10 -43 -22 -46 -27 -6 -9
31 4 74 26 26 13 33 11 156 -56 72 -39 233 -125 359 -192 126 -68 229 -127
229 -132 1 -7 -390 -201 -457 -227 -5 -2 -8 -6 -5 -9 3 -3 112 46 244 108 131
63 244 114 251 114 7 0 124 -60 261 -134 137 -73 295 -158 352 -188 76 -40 99
-57 90 -65 -12 -9 -351 -173 -446 -215 -24 -11 -41 -22 -39 -25 3 -2 120 51
261 118 l257 122 82 -44 c46 -24 209 -111 364 -194 l282 -150 -125 -63 c-70
-35 -124 -65 -121 -68 3 -3 63 24 133 59 l129 64 245 -129 c135 -71 303 -160
374 -198 l128 -69 167 80 c91 44 268 130 392 191 l226 110 74 -37 c41 -21 132
-69 203 -107 70 -38 130 -67 133 -65 2 3 -84 51 -191 108 -108 57 -196 106
-196 109 0 3 170 89 379 191 l378 186 109 -59 c232 -126 377 -201 371 -191 -4
6 -111 66 -238 134 l-230 122 380 188 381 188 57 -33 c122 -69 425 -228 429
-223 3 2 -103 62 -236 132 -132 71 -239 129 -237 131 1 1 170 86 376 188 359
180 374 186 397 171 13 -8 29 -15 36 -15 7 1 1 8 -14 16 -16 8 -28 17 -28 20
0 3 151 79 337 170 185 90 334 167 331 169 -3 3 -159 -70 -347 -162 l-341
-168 -203 107 c-111 60 -273 145 -359 191 -87 45 -158 85 -158 88 0 3 169 87
376 187 l377 182 91 -48 c50 -27 203 -109 339 -182 136 -73 250 -130 253 -127
5 4 -420 234 -595 321 -40 21 -71 39 -69 41 2 2 126 65 276 139 150 75 272
138 272 140 0 6 -169 -73 -388 -183 l-182 -91 -108 58 c-59 32 -205 110 -324
172 l-218 113 0 46 1 46 237 115 c266 128 247 118 241 125 -3 2 -110 -47 -238
-110 -128 -63 -235 -115 -237 -115 -2 0 -5 622 -6 1382 l-3 1382 -85 47 c-327
177 -883 467 -1600 834 -223 114 -464 238 -536 276 l-130 68 -60 -28z m759
-402 c386 -199 720 -371 742 -384 33 -19 193 -103 748 -393 l49 -26 -239 -117
c-131 -64 -533 -262 -893 -439 -774 -381 -1186 -580 -1201 -580 -6 0 -268 133
-582 297 -315 163 -621 322 -682 353 -60 32 -263 137 -450 235 -187 98 -378
198 -425 222 -47 24 -88 48 -93 52 -4 4 75 47 175 96 662 320 1561 757 1828
888 173 86 316 156 318 156 2 1 319 -161 705 -360z m-2895 -923 c97 -51 413
-216 702 -366 289 -150 715 -371 948 -493 l422 -220 0 -1548 c0 -852 -2 -1549
-4 -1549 -3 0 -20 8 -38 19 -18 10 -152 80 -298 156 -146 76 -395 207 -555
290 -159 84 -497 259 -750 390 -253 131 -497 257 -541 281 l-82 44 5 1532 c2
843 4 1539 4 1546 -1 6 1 12 4 12 3 0 85 -42 183 -94z m4492 -1473 l0 -1548
-1164 -572 c-640 -315 -1171 -575 -1180 -579 -15 -6 -16 119 -16 1544 l0 1550
158 77 c86 43 308 151 492 240 184 90 641 314 1015 498 374 185 683 336 688
336 4 1 7 -695 7 -1546z m-4750 -1407 l0 -155 227 -117 227 -117 -154 -73
c-84 -41 -160 -74 -167 -74 -8 0 -106 49 -216 109 -111 59 -275 146 -364 192
-90 46 -163 86 -163 89 1 5 589 298 603 299 4 1 7 -68 7 -153z m5126 -42 c165
-86 303 -159 307 -163 4 -4 -162 -89 -369 -189 l-377 -182 -147 76 c-82 41
-155 81 -164 87 -14 10 20 30 209 121 l225 109 0 148 c0 82 4 149 9 149 4 0
143 -70 307 -156z m-4538 -417 c64 -35 228 -121 365 -191 136 -70 247 -129
247 -132 0 -4 -143 -76 -246 -123 l-71 -32 -364 191 c-200 106 -366 194 -368
196 -3 3 298 152 312 153 4 1 61 -28 125 -62z m3971 -65 l114 -60 -378 -186
c-208 -102 -380 -186 -383 -186 -12 0 -312 166 -312 173 0 4 138 75 308 158
169 82 336 165 372 184 l65 34 50 -29 c27 -16 101 -55 164 -88z m-4378 -56
c24 -14 190 -101 368 -195 l325 -170 -170 -81 c-93 -45 -266 -128 -385 -186
l-216 -106 -99 55 c-54 29 -220 118 -368 198 l-269 143 109 51 c60 27 230 109
379 182 148 72 273 132 276 132 4 1 26 -10 50 -23z m4869 -203 c193 -104 351
-192 351 -197 0 -4 -166 -90 -369 -191 l-369 -182 -359 188 c-197 103 -360
192 -361 196 -4 10 713 370 738 372 9 1 175 -83 369 -186z m-3512 -172 c169
-88 332 -173 362 -189 l55 -30 -159 -76 c-87 -42 -163 -76 -169 -76 -15 0
-717 372 -717 380 0 8 289 148 308 149 7 1 151 -71 320 -158z m2206 74 c80
-44 146 -82 146 -85 0 -4 -46 -29 -102 -55 -57 -27 -225 -109 -375 -182 l-272
-134 -160 83 c-88 46 -161 86 -161 89 0 12 736 368 757 365 11 -2 87 -38 167
-81z m-2499 -262 c195 -104 355 -191 355 -194 0 -3 -170 -88 -377 -189 l-378
-183 -130 68 c-71 37 -235 123 -364 193 l-234 125 49 23 c27 12 198 94 379
183 182 88 334 160 338 161 4 0 167 -84 362 -187z m2931 31 c142 -75 303 -158
356 -185 53 -27 99 -53 103 -59 4 -6 -143 -84 -366 -195 l-373 -184 -156 81
c-247 129 -564 299 -572 307 -6 5 724 370 743 371 3 0 122 -61 265 -136z
m-1213 -145 c86 -44 157 -84 157 -88 0 -5 -28 -21 -62 -36 -35 -15 -205 -99
-378 -185 l-315 -157 -170 90 c-475 251 -545 289 -541 296 3 3 75 40 161 81
l157 74 42 -23 c22 -12 109 -58 193 -102 l152 -79 213 104 c117 57 218 105
224 105 6 1 81 -35 167 -80z m-772 -387 c310 -165 642 -340 738 -390 l175 -90
-240 -119 c-349 -172 -518 -253 -530 -253 -6 0 -64 28 -130 63 -65 35 -228
121 -362 192 l-243 128 233 115 c128 63 298 145 377 183 79 38 142 72 139 75
-3 3 -176 -79 -384 -181 l-378 -186 -61 33 c-146 79 -382 204 -517 275 -82 43
-148 80 -148 83 0 3 53 30 118 60 64 30 234 112 377 182 143 70 263 127 266
127 3 1 260 -133 570 -297z m1231 145 c147 -78 310 -165 363 -193 l96 -50
-383 -188 -383 -189 -50 27 c-27 15 -193 102 -367 194 -174 91 -315 168 -313
170 11 11 742 370 755 371 8 1 135 -63 282 -142z"/>
<path d="M6135 12621 c-538 -258 -966 -463 -1245 -596 -135 -64 -320 -153
-412 -197 l-168 -82 0 -1173 c0 -645 -3 -1173 -6 -1173 -4 0 -56 27 -116 60
-61 34 -112 59 -115 57 -2 -3 50 -35 117 -72 100 -56 121 -71 118 -88 -2 -16
-70 -53 -333 -180 l-329 -159 -81 43 c-44 23 -111 60 -149 81 -38 21 -71 37
-73 35 -6 -6 31 -29 162 -98 113 -60 117 -63 97 -77 -20 -13 -538 -263 -656
-317 l-50 -22 145 -81 c79 -45 246 -137 371 -204 125 -68 228 -126 228 -129 0
-3 -61 -34 -135 -69 -74 -35 -135 -67 -135 -72 0 -7 46 14 226 104 l62 31 143
-80 c79 -44 242 -133 362 -199 l219 -118 -153 -73 c-84 -40 -150 -75 -147 -78
4 -5 163 68 261 120 l47 25 153 -83 c83 -46 239 -130 344 -188 106 -57 193
-107 193 -110 0 -3 -66 -36 -147 -74 -82 -37 -150 -70 -152 -72 -11 -8 10 -15
21 -6 7 5 77 40 156 76 l143 67 350 -188 c192 -103 349 -189 349 -192 0 -3
-74 -41 -165 -84 -91 -43 -165 -83 -165 -88 0 -4 78 31 173 78 l172 87 70 -38
c94 -51 572 -317 610 -340 l30 -17 240 112 c132 62 384 182 559 267 357 173
656 313 669 313 5 0 90 -45 189 -101 99 -55 182 -99 184 -96 3 3 -19 18 -48
35 -29 16 -111 62 -181 102 -71 39 -127 73 -125 75 2 2 162 78 356 169 l354
166 155 -86 c86 -47 157 -83 160 -81 2 3 -64 42 -147 88 -83 45 -147 86 -143
90 5 3 73 37 153 74 80 38 234 113 343 167 109 54 201 98 206 98 4 0 56 -27
116 -60 59 -33 110 -59 112 -56 3 2 -26 21 -64 42 -37 20 -86 47 -107 60 l-39
22 129 66 c162 82 153 86 -13 6 -69 -33 -129 -60 -134 -60 -8 0 -117 59 -483
263 -190 106 -198 111 -177 125 20 14 459 228 642 313 l87 41 108 -62 c60 -35
125 -71 144 -82 l35 -19 -28 23 c-15 13 -78 51 -139 85 l-110 62 116 58 c64
32 116 60 116 64 0 3 -51 -20 -112 -52 -62 -32 -119 -58 -126 -59 -11 0 -150
73 -624 330 -43 23 -78 45 -78 48 0 4 90 51 201 105 110 54 199 101 196 103
-2 3 -98 -41 -212 -98 l-207 -102 -45 24 -45 25 1 1161 c1 937 -1 1163 -11
1171 -7 6 -134 77 -283 158 -148 81 -351 191 -450 245 -199 109 -1076 583
-1280 693 -71 38 -139 76 -150 83 -11 8 -22 14 -25 13 -3 -1 -171 -81 -375
-178z m453 65 c42 -24 95 -53 117 -64 l40 -21 -90 -41 c-49 -23 -122 -57 -161
-76 l-71 -35 -117 62 c-65 34 -114 65 -109 69 4 4 64 33 133 65 69 32 134 64
145 71 27 19 27 19 113 -30z m426 -232 c60 -31 105 -59 100 -64 -5 -4 -38 -20
-74 -35 -36 -15 -100 -45 -142 -66 -43 -22 -84 -39 -92 -39 -7 0 -49 20 -92
43 -44 24 -121 65 -172 92 -51 26 -89 52 -85 56 5 5 76 39 158 77 l150 68 70
-38 c39 -22 119 -64 179 -94z m-728 45 c63 -34 114 -63 112 -64 -2 -2 -66 -31
-143 -65 -77 -34 -174 -79 -215 -100 l-75 -37 -120 63 -120 63 120 57 c66 31
161 76 210 100 50 23 96 43 103 43 8 1 65 -27 128 -60z m212 -112 c42 -24 124
-68 180 -98 l104 -53 -44 -20 c-23 -11 -121 -57 -215 -102 l-173 -82 -175 91
c-96 50 -174 96 -172 101 2 5 91 50 198 99 107 49 198 93 204 98 12 12 6 14
93 -34z m770 -71 c64 -35 143 -77 175 -92 31 -16 57 -31 57 -35 0 -3 -69 -38
-152 -78 -114 -54 -157 -70 -169 -63 -8 5 -90 49 -183 97 -92 48 -166 89 -164
90 6 6 303 144 311 144 4 1 61 -28 125 -63z m-1443 -31 l119 -64 -104 -49
c-58 -27 -158 -75 -223 -105 l-118 -56 -117 64 -116 64 44 19 c37 16 394 189
395 191 0 1 54 -28 120 -64z m1160 -157 c96 -51 175 -95 175 -99 0 -3 -84 -45
-187 -93 -104 -48 -199 -93 -212 -100 -22 -12 -31 -10 -90 24 -36 20 -117 63
-178 96 -62 32 -113 61 -113 64 0 6 401 198 417 199 7 1 92 -40 188 -91z
m-972 58 c23 -14 103 -56 177 -95 l135 -70 -90 -42 c-50 -23 -149 -70 -222
-104 l-132 -63 -94 51 c-52 29 -131 70 -175 92 -45 21 -82 41 -82 45 0 3 414
201 438 209 2 1 22 -10 45 -23z m1706 -115 c100 -54 184 -101 187 -103 2 -3
-51 -29 -118 -58 -68 -30 -138 -62 -157 -72 l-35 -18 -60 34 c-34 18 -119 64
-189 101 -70 37 -126 69 -123 72 8 8 290 141 301 142 6 1 93 -44 194 -98z
m-2249 -72 c0 -3 -19 -14 -42 -24 -24 -11 -121 -56 -216 -102 l-174 -82 -71
36 c-40 19 -92 47 -117 61 l-44 26 218 106 219 106 113 -60 c63 -34 114 -64
114 -67z m1840 -49 c96 -47 250 -134 250 -141 0 -3 -37 -23 -82 -44 -46 -20
-140 -64 -209 -97 l-125 -59 -185 96 c-101 54 -187 100 -191 104 -4 3 41 29
100 56 59 27 156 73 216 102 109 52 109 52 135 34 14 -10 55 -33 91 -51z
m-856 3 c57 -32 136 -75 175 -96 39 -20 71 -41 71 -45 -1 -4 -35 -22 -78 -41
-42 -19 -139 -65 -216 -102 l-138 -68 -77 43 c-42 23 -122 67 -178 97 -57 29
-103 56 -103 59 0 4 288 142 437 209 1 1 49 -25 107 -56z m-776 -58 c95 -49
172 -93 172 -96 0 -4 -24 -17 -52 -29 -29 -12 -128 -58 -219 -102 l-166 -80
-172 93 c-94 50 -171 95 -171 98 0 7 422 210 431 207 3 0 83 -41 177 -91z
m2498 -71 l148 -78 -35 -15 c-19 -8 -89 -41 -157 -72 l-123 -58 -196 104 -197
104 85 38 c46 21 118 54 159 74 l75 36 46 -28 c26 -15 113 -62 195 -105z
m-3284 19 c65 -32 118 -61 118 -64 0 -3 -19 -14 -42 -24 -24 -11 -102 -47
-175 -81 l-132 -62 -116 60 c-64 33 -114 62 -112 64 3 3 76 38 162 79 87 41
160 77 163 80 9 9 15 7 134 -52z m2038 -145 l193 -102 -39 -18 c-21 -9 -120
-56 -220 -103 l-181 -85 -192 101 c-105 56 -190 103 -189 104 5 5 422 204 429
204 3 1 93 -45 199 -101z m698 83 c15 -10 72 -41 127 -69 55 -28 129 -66 164
-85 l65 -35 -209 -101 -208 -101 -186 96 c-102 53 -190 100 -195 105 -6 5 56
39 150 83 87 42 179 86 204 100 55 30 56 30 88 7z m-1701 -19 c26 -16 108 -59
181 -97 73 -38 129 -72 125 -76 -5 -4 -103 -52 -219 -107 l-212 -99 -180 96
c-100 52 -179 98 -176 101 3 3 101 51 217 106 117 56 213 102 214 103 1 1 24
-12 50 -27z m-784 -51 c56 -32 132 -74 170 -92 37 -18 67 -36 67 -40 0 -8
-330 -159 -347 -159 -7 0 -83 38 -170 85 -87 47 -161 85 -165 85 -5 0 -8 4 -8
8 0 5 48 30 108 56 59 26 136 63 172 81 36 19 66 34 68 35 2 0 49 -26 105 -59z
m3230 5 c12 -8 73 -41 134 -74 l113 -59 -148 -72 -147 -73 -142 74 c-79 40
-143 75 -143 78 0 7 281 138 298 139 7 1 23 -5 35 -13z m-3750 -162 c16 -9 17
-28 15 -217 l-3 -207 -130 73 -130 72 -3 207 -2 207 117 -62 c65 -34 126 -67
136 -73z m1845 -74 c100 -52 182 -97 182 -100 0 -3 -57 -32 -127 -64 -71 -32
-171 -79 -224 -103 l-96 -45 -139 75 c-76 42 -161 88 -189 103 l-50 27 70 31
c39 17 138 63 220 103 83 39 155 71 160 70 6 -1 92 -45 193 -97z m803 40 c63
-33 147 -77 186 -98 40 -20 73 -39 73 -42 0 -3 -100 -51 -222 -107 l-221 -103
-31 19 c-17 11 -103 58 -191 105 l-160 85 65 30 c36 16 133 61 215 100 83 39
155 71 161 71 7 0 63 -27 125 -60z m878 -13 c73 -40 133 -76 133 -82 -1 -5
-90 -52 -199 -104 l-198 -94 -142 74 c-79 41 -143 77 -143 80 0 3 60 33 133
67 72 34 161 77 197 96 36 20 70 35 75 35 6 0 70 -33 144 -72z m-2661 20 c42
-24 123 -68 180 -98 56 -29 102 -56 102 -59 0 -3 -79 -41 -176 -84 l-175 -79
-37 20 c-20 11 -101 55 -180 98 -79 42 -142 78 -140 80 2 1 66 30 143 64 77
33 154 70 170 81 17 11 31 20 33 20 1 0 37 -20 80 -43z m-644 -89 c44 -22 97
-51 118 -64 l38 -24 0 -205 c0 -113 -3 -205 -7 -205 -5 0 -80 40 -168 89
l-160 88 -3 212 -2 212 52 -31 c29 -17 89 -49 132 -72z m3806 -131 l0 -214
-136 -66 c-74 -37 -140 -67 -145 -67 -6 0 -8 83 -7 212 l3 213 135 67 c74 36
138 67 143 67 4 1 7 -95 7 -212z m-1838 -9 c73 -39 160 -86 193 -104 l59 -33
-94 -44 c-52 -25 -153 -72 -224 -106 l-128 -61 -195 101 c-108 57 -191 105
-186 110 5 5 69 35 143 67 74 32 171 77 215 100 44 23 81 41 82 42 1 0 61 -32
135 -72z m902 -7 l139 -74 -29 -15 c-16 -9 -118 -58 -228 -109 l-198 -93 -27
19 c-14 10 -77 44 -138 76 -62 32 -113 61 -113 64 0 3 51 28 113 56 61 27 162
73 222 102 61 29 112 51 115 50 3 -1 68 -35 144 -76z m626 -135 l0 -214 -47
-20 c-27 -11 -110 -50 -185 -86 l-138 -65 0 212 0 212 178 87 c97 47 180 87
185 87 4 1 7 -95 7 -213z m-2483 176 c27 -16 110 -62 186 -102 75 -40 136 -74
134 -76 -2 -2 -83 -40 -181 -84 l-177 -80 -117 64 c-64 35 -150 80 -191 101
l-74 37 129 59 c71 32 152 70 179 83 28 14 53 25 57 25 4 1 29 -12 55 -27z
m-666 -79 l164 -88 3 -212 c1 -117 1 -213 -1 -213 -3 0 -37 19 -78 41 -41 23
-116 64 -166 91 l-93 50 0 209 c0 115 1 209 3 209 2 0 77 -39 168 -87z m-603
-121 l52 -26 0 -238 c0 -131 -1 -238 -3 -238 -2 0 -39 20 -82 44 -43 25 -102
58 -131 73 l-54 28 0 238 0 238 83 -46 c45 -25 106 -58 135 -73z m3356 -194
c-7 -176 -8 -188 -27 -194 -11 -4 -94 -42 -184 -85 -90 -44 -166 -79 -168 -79
-3 0 -5 94 -5 208 l0 209 188 90 187 90 8 -26 c4 -14 4 -110 1 -213z m-1481
67 c71 -37 127 -68 125 -69 -2 -2 -82 -39 -179 -84 l-176 -81 -188 99 c-103
55 -190 102 -193 105 -3 2 37 24 89 47 52 24 132 61 179 84 l84 40 66 -36 c36
-21 123 -68 193 -105z m686 111 c31 -19 93 -52 139 -75 45 -23 82 -45 82 -49
0 -4 -69 -38 -153 -76 -83 -38 -181 -83 -216 -99 l-64 -30 -143 74 c-90 47
-139 78 -133 84 7 7 410 200 428 204 2 1 29 -14 60 -33z m-1593 -62 l164 -86
0 -214 0 -215 -62 36 c-35 19 -111 61 -170 93 l-108 57 0 208 c0 114 3 207 6
207 3 0 79 -39 170 -86z m-698 -68 l142 -78 0 -234 c0 -129 -3 -234 -7 -234
-5 1 -80 41 -168 89 l-160 89 -3 242 -2 242 27 -20 c16 -10 92 -54 171 -96z
m3792 -164 l0 -239 -136 -66 c-74 -37 -140 -67 -145 -67 -5 0 -9 98 -9 240 l0
240 133 64 c72 35 138 65 145 65 9 1 12 -53 12 -237z m-1110 -45 l0 -214 -32
-10 c-18 -6 -104 -45 -191 -86 l-157 -76 2 211 3 211 185 88 c102 48 186 88
188 88 1 1 2 -95 2 -212z m-1615 80 l160 -85 3 -215 2 -215 -161 88 c-89 49
-165 92 -169 97 -4 4 -11 102 -15 217 -6 175 -5 208 6 204 8 -3 86 -44 174
-91z m840 -7 l150 -79 -86 -40 c-47 -22 -130 -60 -183 -85 l-97 -45 -144 76
c-80 42 -142 80 -138 84 5 4 62 32 128 62 91 41 216 101 220 107 1 0 68 -36
150 -80z m1575 -170 l0 -240 -187 -90 c-102 -49 -187 -90 -189 -90 -1 0 -1
109 1 243 3 188 6 244 17 249 30 17 344 166 351 167 4 1 7 -107 7 -239z
m-3149 123 c89 -47 163 -91 165 -97 2 -6 3 -113 2 -238 l-3 -226 -167 90 -168
90 0 234 c0 129 2 234 5 234 3 0 78 -39 166 -87z m1947 -215 l-3 -212 -130
-58 -130 -59 -57 27 -58 28 0 153 0 153 181 90 c99 50 185 90 190 90 6 0 8
-87 7 -212z m-810 54 l112 -57 0 -218 0 -218 -22 12 c-13 6 -54 30 -92 52
l-69 39 47 26 c61 34 51 40 -16 10 l-53 -25 -63 35 -62 34 0 214 0 214 53 -30
c28 -17 103 -57 165 -88z m-1746 -6 l58 -31 0 -233 c0 -146 -4 -232 -10 -230
-5 2 -66 32 -134 68 l-126 65 0 238 0 238 78 -42 c42 -23 103 -56 134 -73z
m3358 -146 l0 -239 -52 -23 c-29 -12 -111 -50 -181 -85 -70 -35 -132 -63 -138
-63 -5 0 -9 94 -9 236 l0 235 183 89 c100 50 185 90 190 90 4 0 7 -108 7 -240z
m-2479 169 c41 -23 116 -64 167 -91 l92 -50 0 -240 0 -240 -52 31 c-29 17
-106 59 -170 93 l-118 63 0 237 c0 131 2 238 4 238 2 0 36 -19 77 -41z m1277
-270 l-3 -204 -105 -47 c-58 -26 -108 -47 -111 -48 -8 0 -21 394 -14 423 5 19
12 23 33 20 17 -3 57 10 107 35 44 22 83 36 88 33 4 -4 6 -99 5 -212z m-1870
92 l132 -72 0 -235 0 -235 -82 46 c-46 25 -122 67 -170 93 l-88 47 0 238 0
237 38 -23 c20 -13 97 -56 170 -96z m3782 -166 l0 -235 -107 -54 c-60 -29
-125 -61 -145 -69 l-38 -16 0 239 0 240 133 64 c72 35 138 65 145 65 9 1 12
-52 12 -234z m-1110 -10 l0 -235 -79 -39 -79 -40 -111 60 -111 61 0 127 0 128
178 86 c97 47 183 86 190 86 9 1 12 -52 12 -234z m-1733 167 c26 -16 101 -57
166 -91 l118 -63 -3 -61 -3 -60 -169 -78 c-93 -44 -171 -79 -173 -79 -2 0 -3
104 -3 230 0 140 4 230 10 230 5 0 31 -13 57 -28z m2533 -300 l0 -238 -183
-87 c-101 -48 -186 -87 -190 -87 -4 0 -6 108 -5 241 l2 240 51 22 c27 12 108
50 179 84 72 35 134 63 138 63 4 0 8 -107 8 -238z m-3055 81 l70 -38 3 -181 2
-180 -45 -22 c-25 -12 -51 -22 -58 -22 -6 -1 -63 25 -124 57 l-113 58 0 237 0
236 98 -53 c53 -29 129 -71 167 -92z m1855 -18 l0 -115 -52 29 c-29 16 -82 45
-118 65 l-64 35 94 44 c101 47 121 55 133 56 4 1 7 -51 7 -114z m-932 19 c5
-3 -47 -30 -75 -38 -22 -7 -23 -5 -23 44 l0 51 48 -27 c26 -15 49 -29 50 -30z
m607 24 c25 -12 45 -25 45 -28 0 -6 -85 -50 -95 -50 -3 0 -5 23 -5 50 0 28 2
50 5 50 2 0 25 -10 50 -22z m-2308 -97 l128 -69 3 -236 c2 -186 0 -236 -10
-235 -7 0 -67 31 -133 68 l-120 68 -3 237 c-1 130 0 236 2 236 3 0 62 -31 133
-69z m1829 2 l104 -58 0 -233 0 -234 -62 35 c-35 19 -109 58 -165 87 l-103 53
0 179 0 178 53 24 c28 14 56 25 61 25 5 1 56 -25 112 -56z m680 -10 l124 -67
0 -117 0 -116 -67 -28 c-38 -16 -121 -55 -185 -87 -65 -32 -120 -58 -123 -58
-3 0 -5 107 -5 238 l0 238 63 31 c34 18 63 32 65 32 2 1 59 -29 128 -66z m907
-440 c-9 -7 -22 -13 -28 -13 -11 0 -97 45 -265 140 l-65 36 0 78 0 79 185 88
185 88 3 -242 c2 -219 1 -243 -15 -254z m-2458 425 c39 -20 109 -58 157 -86
l87 -49 -156 -74 c-86 -41 -160 -75 -164 -77 -5 -2 -9 71 -9 163 0 92 3 165 8
163 4 -2 39 -20 77 -40z m625 -143 c0 -91 -3 -165 -6 -165 -4 0 -45 22 -93 49
-47 26 -119 65 -160 85 -40 21 -71 40 -68 43 7 7 310 151 320 152 4 1 7 -73 7
-164z m650 -85 l0 -240 -36 -17 -35 -17 -79 39 -79 40 -1 41 c0 22 -3 96 -7
162 l-6 122 54 22 c30 13 83 37 119 55 36 17 66 32 68 32 1 1 2 -107 2 -239z
m-1964 107 c60 -34 135 -76 167 -92 l57 -30 0 -118 0 -118 -112 -54 c-62 -30
-119 -55 -126 -55 -7 0 -33 12 -58 26 l-44 26 0 239 c0 131 1 239 3 239 2 0
52 -28 113 -63z m2490 2 c52 -28 94 -52 94 -54 0 -5 -84 -51 -145 -79 l-55
-25 0 105 c0 57 3 104 6 104 3 0 48 -23 100 -51z m271 -125 c-4 -5 -127 59
-127 66 0 3 28 20 63 37 l62 30 3 -64 c2 -36 1 -67 -1 -69z m1110 -118 l-2
-215 -134 -65 c-74 -36 -138 -63 -143 -60 -4 3 -8 109 -8 235 l0 231 43 16
c23 9 85 37 137 63 86 42 96 44 102 28 4 -10 6 -115 5 -233z m-2927 -20 l0
-234 -127 70 c-71 39 -147 82 -170 95 l-43 24 0 62 1 62 162 77 c89 42 165 77
170 77 4 1 7 -104 7 -233z m236 116 l131 -72 2 -154 2 -154 -67 -31 c-100 -47
-101 -47 -190 0 -43 24 -82 47 -86 52 -3 6 -7 115 -7 243 l-2 233 43 -23 c24
-13 102 -55 174 -94z m1509 41 l75 -37 0 -172 0 -171 -127 -58 c-71 -32 -155
-71 -187 -87 -33 -15 -61 -28 -63 -28 -2 0 -3 107 -3 238 l0 239 108 56 c59
31 110 56 114 56 4 1 41 -16 83 -36z m875 -244 l0 -220 -57 32 c-32 18 -87 50
-123 72 -106 64 -130 77 -145 77 -26 0 -16 -15 18 -25 48 -16 307 -168 304
-180 -4 -11 -357 -178 -364 -172 -2 3 -6 88 -9 191 -4 132 -2 186 6 186 8 0 8
6 0 21 -25 46 -13 56 180 149 101 50 186 90 187 90 2 0 3 -99 3 -221z m-3120
101 c0 -5 -185 -100 -195 -100 -3 0 -5 48 -5 106 l0 105 100 -52 c55 -30 100
-56 100 -59z m2565 -29 l90 -50 -56 -25 c-30 -13 -99 -45 -153 -70 -55 -25
-101 -46 -102 -46 -2 0 -4 70 -4 155 l0 155 68 -34 c37 -19 107 -57 157 -85z
m-647 -256 l-3 -115 -185 103 c-187 104 -198 114 -186 162 6 24 15 29 256 141
l115 54 3 -115 c1 -63 1 -167 0 -230z m-1778 280 c0 -50 -1 -50 -68 -7 l-24
16 34 17 c51 28 58 25 58 -26z m1012 -115 l28 -17 -138 -63 c-75 -35 -140 -65
-144 -67 -5 -2 -8 61 -8 140 l0 145 118 -61 c64 -33 129 -68 144 -77z m-1071
78 l59 -33 0 -68 0 -68 -30 16 c-16 9 -53 29 -81 45 -52 31 -129 66 -116 54 4
-4 56 -35 115 -69 l107 -61 3 -162 2 -162 -62 35 c-35 19 -111 61 -170 93
l-108 57 0 122 0 122 103 54 c56 30 106 55 110 56 5 0 35 -14 68 -31z m-792
-68 l121 -65 0 -55 0 -55 -97 -49 c-54 -27 -113 -55 -130 -63 l-33 -13 0 186
c0 113 4 184 10 182 5 -1 63 -32 129 -68z m2072 8 c32 -18 57 -37 56 -42 -2
-4 -30 -21 -64 -36 l-61 -28 -6 53 c-5 49 -1 85 11 85 2 0 31 -15 64 -32z
m1359 -20 c1 -29 2 -64 3 -78 0 -14 0 -96 -1 -183 l-2 -158 -52 -22 c-29 -12
-96 -42 -149 -68 l-96 -47 -36 21 -37 21 0 128 c0 76 4 128 10 128 14 0 311
142 306 147 -2 2 -72 -28 -156 -67 -84 -38 -157 -70 -162 -70 -4 0 -8 28 -8
63 l0 62 158 74 c86 41 169 74 184 74 18 0 25 4 21 13 -3 8 -1 14 5 14 5 0 10
-24 12 -52z m-2384 -59 l164 -91 0 -65 0 -65 -127 67 c-71 37 -147 78 -170 92
l-43 25 0 64 c0 35 3 64 6 64 3 0 79 -41 170 -91z m1184 31 c0 -30 0 -30 -25
-14 l-26 17 23 12 c13 7 24 13 26 14 1 1 2 -13 2 -29z m-1740 -91 c0 -61 -3
-109 -8 -107 -4 2 -54 28 -110 58 l-104 54 104 53 c57 28 106 52 111 52 4 1 7
-49 7 -110z m1438 -157 c1 -134 -1 -242 -5 -240 -13 5 -276 150 -300 165 -21
12 -23 21 -23 99 l0 85 143 69 c78 38 151 68 162 67 19 -2 20 -10 23 -245z
m302 3 c0 -152 -3 -206 -12 -212 -7 -4 -59 -29 -115 -55 l-103 -47 0 239 0
239 83 39 82 38 33 -19 32 -19 0 -203z m-2026 172 c19 -14 19 -15 -12 -31 -17
-9 -33 -16 -37 -16 -3 0 -5 18 -5 40 0 44 5 44 54 7z m2132 -31 c44 -24 128
-71 188 -105 l110 -61 -55 -22 c-30 -12 -116 -53 -191 -90 l-138 -68 0 195 c0
107 2 195 4 195 2 0 39 -20 82 -44z m-1378 -30 c42 -24 116 -64 165 -87 75
-38 87 -47 87 -69 0 -23 -14 -31 -140 -88 -136 -62 -140 -63 -170 -47 l-30 16
0 159 c0 88 2 160 5 160 3 0 41 -20 83 -44z m3181 -77 c0 -66 -3 -119 -8 -117
-26 10 -231 124 -231 128 0 7 210 108 227 109 9 1 12 -32 12 -120z m-3769 48
l115 -62 3 -183 2 -182 -170 85 -170 85 0 144 0 143 38 16 c20 8 44 15 52 16
8 0 67 -27 130 -62z m2660 -11 l0 -63 -112 -53 -113 -52 -62 33 c-35 18 -63
35 -63 38 1 6 327 158 343 160 4 1 7 -28 7 -63z m-1706 -5 l68 -39 -63 -31
c-73 -35 -84 -37 -93 -15 -12 30 -7 124 7 124 6 -1 43 -18 81 -39z m-1195 -96
c1 -79 -2 -125 -8 -125 -6 0 -39 15 -73 34 -35 19 -90 48 -122 64 l-59 31 124
60 c68 32 127 60 130 60 4 1 8 -55 8 -124z m1451 50 l0 -76 -32 17 c-18 9 -53
28 -77 42 l-44 25 64 33 c35 18 70 33 77 34 8 0 12 -21 12 -75z m2430 -53
l125 -67 3 -71 3 -71 -141 -66 c-78 -37 -143 -67 -145 -67 -3 0 -5 92 -5 205
0 189 1 205 18 205 9 0 73 -31 142 -68z m-2514 2 l84 -45 0 -70 0 -69 -77 42
c-198 109 -223 123 -223 128 1 8 103 59 119 60 8 0 52 -20 97 -46z m2334 -155
l0 -200 -132 -63 -133 -63 -52 25 -53 26 0 156 0 155 173 82 c94 45 178 82
185 82 9 1 12 -45 12 -200z m-3012 28 c27 -16 33 -24 30 -49 -3 -29 -12 -35
-150 -100 -101 -47 -154 -68 -168 -63 -19 6 -20 14 -20 191 l0 185 138 -72
c75 -39 152 -81 170 -92z m2210 -11 l-3 -54 -97 56 c-54 32 -98 59 -98 62 0 3
44 26 98 51 l97 45 3 -53 c2 -29 2 -77 0 -107z m-307 102 c33 -18 59 -35 59
-38 0 -4 -26 -17 -57 -31 -32 -13 -61 -25 -65 -27 -4 -2 -8 26 -8 62 0 36 3
66 6 66 4 0 33 -15 65 -32z m-2732 -35 c130 -69 141 -78 141 -117 0 -59 -8
-58 -143 15 l-127 70 0 45 c0 25 5 44 11 44 6 0 59 -25 118 -57z m2641 -11 l0
-67 -157 -79 c-87 -43 -173 -85 -191 -93 l-33 -14 3 71 3 71 185 89 c101 50
186 90 187 90 2 0 3 -30 3 -68z m-1203 -32 l153 -85 0 -162 c0 -90 -2 -163 -3
-163 -2 0 -42 23 -88 51 -46 28 -123 71 -171 95 l-88 44 0 88 c0 48 3 118 7
155 5 55 9 67 22 65 9 -2 85 -41 168 -88z m-1625 -202 l3 -272 102 -56 101
-57 -64 -31 -64 -32 -47 28 c-27 16 -176 100 -333 186 -157 87 -300 167 -319
179 l-33 20 88 41 c49 22 190 91 314 153 124 61 231 112 237 112 10 1 13 -63
15 -271z m1408 128 l0 -134 -87 50 c-49 28 -107 60 -130 71 -42 21 -55 37 -30
37 6 1 62 25 122 54 61 30 113 55 118 55 4 1 7 -59 7 -133z m545 49 c77 -43
148 -85 158 -93 13 -11 17 -31 17 -79 0 -34 -3 -63 -6 -63 -6 0 -65 33 -256
142 l-68 39 0 70 c0 39 3 68 8 66 4 -2 70 -39 147 -82z m1165 -7 l110 -63 0
-45 0 -45 -141 -65 c-77 -36 -163 -75 -190 -87 l-49 -23 0 161 0 160 72 34
c40 19 76 35 80 35 5 0 58 -28 118 -62z m1313 23 c34 -18 34 -25 2 -39 -39
-18 -45 -15 -45 24 0 20 3 34 8 32 4 -2 19 -10 35 -17z m-4210 -90 l97 -52 0
-144 0 -144 -54 -24 c-87 -40 -88 -40 -149 -5 l-56 33 -1 213 0 214 33 -20
c17 -10 76 -43 130 -71z m3410 -65 c1 -75 1 -136 0 -136 -4 0 -257 141 -263
147 -3 2 4 10 14 16 28 18 241 115 244 112 2 -2 4 -64 5 -139z m-2965 -43 c43
-26 17 -83 -38 -82 -14 0 -81 31 -150 67 l-125 67 -3 58 -3 58 148 -77 c81
-42 158 -83 171 -91z m432 147 c0 -4 -7 -10 -15 -14 -10 -4 -15 1 -15 14 0 13
5 18 15 14 8 -4 15 -10 15 -14z m3676 -136 c422 -228 420 -227 404 -232 -16
-6 -436 -206 -619 -296 -63 -31 -120 -56 -125 -56 -6 0 -37 16 -69 34 l-59 34
43 23 43 24 3 165 c1 91 3 224 3 296 l0 130 33 17 c17 8 37 16 43 16 7 1 142
-69 300 -155z m-1946 -16 l0 -163 -142 -64 -141 -65 -46 25 -46 24 -3 107 -3
108 188 94 c103 52 189 95 191 95 1 1 2 -72 2 -161z m-1563 61 l143 -81 2
-137 c1 -75 2 -157 2 -183 1 -27 0 -48 0 -48 -1 0 -55 31 -120 68 -66 38 -143
81 -171 97 l-53 28 0 157 c0 153 1 157 23 168 12 6 24 11 26 11 3 1 69 -35
148 -80z m1163 -8 l0 -69 -106 -51 c-59 -28 -111 -51 -116 -51 -5 0 -8 32 -6
71 l3 71 105 48 c58 26 108 48 113 49 4 1 7 -30 7 -68z m-561 26 c31 -19 102
-59 159 -91 l102 -57 0 -42 0 -42 -116 -58 -115 -58 -50 27 -49 27 0 164 c0
89 3 163 6 163 4 0 32 -15 63 -33z m-819 -118 c0 -77 -3 -139 -7 -137 -12 5
-182 97 -232 126 l-44 24 84 39 c46 21 107 50 134 63 28 14 53 25 58 25 4 1 7
-62 7 -140z m2243 123 l27 -19 -25 -11 c-38 -18 -45 -15 -45 18 0 35 5 36 43
12z m1047 -15 c0 -32 -3 -34 -135 -100 -74 -37 -140 -67 -145 -67 -6 0 -10 14
-10 30 0 29 6 33 143 99 78 38 143 70 145 70 1 1 2 -14 2 -32z m-851 -93 l142
-77 -3 -59 -3 -60 -179 -84 c-98 -47 -182 -82 -185 -78 -3 3 -7 93 -9 199 l-4
194 39 20 c21 11 43 20 49 21 7 0 75 -34 153 -76z m-2890 -70 c4 -3 -195 -98
-228 -109 -26 -8 -34 42 -25 155 l6 87 122 -65 c66 -35 123 -66 125 -68z
m2631 -107 l0 -204 -131 -61 -131 -62 -56 33 -57 33 0 144 c0 144 0 144 25
157 55 29 335 161 343 162 4 1 7 -91 7 -202z m1102 -7 l-3 -210 -29 -15 c-28
-15 -31 -13 -139 51 l-111 67 0 96 0 97 88 38 c48 20 107 48 132 61 25 13 50
24 55 25 6 0 9 -74 7 -210z m-3602 180 c0 -5 -7 -10 -15 -10 -8 0 -15 5 -15
10 0 6 7 10 15 10 8 0 15 -4 15 -10z m-1307 -54 c51 -30 211 -120 357 -201
146 -80 269 -150 274 -155 6 -6 -6 -16 -30 -26 -36 -15 -358 -168 -569 -270
-49 -24 -97 -44 -105 -44 -8 0 -40 15 -70 33 -30 18 -191 107 -357 197 -167
91 -303 167 -303 170 0 4 100 53 223 110 122 58 281 134 352 171 72 36 131 67
133 68 2 0 44 -23 95 -53z m1426 -2 c47 -26 112 -62 144 -81 l57 -34 0 -55 c0
-30 -1 -54 -3 -54 -5 0 -244 127 -294 156 -37 21 -43 30 -43 57 0 35 15 57 38
57 8 0 54 -21 101 -46z m659 11 c37 -19 112 -60 167 -92 l100 -58 3 -51 3 -51
-131 -62 -131 -62 -40 23 -39 22 0 106 c0 59 -3 141 -6 183 -4 43 -4 77 0 77
3 0 37 -16 74 -35z m922 -60 l0 -95 -87 43 c-49 24 -95 46 -103 49 -12 4 157
94 183 97 4 1 7 -42 7 -94z m1600 52 c0 -32 -3 -35 -94 -76 l-95 -43 -31 18
-31 19 118 57 c65 31 121 57 126 57 4 1 7 -14 7 -32z m-3340 -17 c0 -22 -8
-25 -30 -10 -13 9 -13 11 0 20 22 15 30 12 30 -10z m-30 -25 l30 -16 0 -209
c0 -162 -3 -210 -12 -209 -7 0 -83 40 -168 88 l-155 88 -3 79 -2 79 127 57
c71 31 134 57 141 57 7 1 26 -6 42 -14z m3045 -12 c19 -9 35 -20 35 -25 0 -8
-64 -38 -81 -38 -5 0 -9 18 -9 40 0 45 5 47 55 23z m-1380 -55 l105 -53 0 -52
0 -53 -106 -50 c-59 -28 -111 -50 -115 -50 -5 0 -9 70 -9 155 0 95 4 155 10
155 5 0 57 -24 115 -52z m1705 -28 c0 -44 -2 -80 -4 -80 -4 0 -148 80 -155 86
-4 3 137 72 152 73 4 1 7 -35 7 -79z m-3145 -28 l160 -88 3 -171 2 -172 -40
-21 -40 -21 -128 69 -127 68 -3 212 c-1 117 1 212 5 212 5 -1 80 -40 168 -88z
m2915 58 l35 -19 -86 -40 c-48 -23 -90 -41 -93 -41 -3 0 -6 15 -6 33 0 30 5
35 53 59 28 15 54 27 57 27 3 0 21 -8 40 -19z m-1670 -96 c0 -58 -4 -104 -9
-102 -27 10 -201 104 -201 108 0 7 182 99 198 99 9 1 12 -27 12 -105z m700
-35 l0 -131 -47 27 c-27 15 -85 48 -130 73 -46 25 -81 47 -79 49 6 6 240 112
249 112 4 1 7 -58 7 -130z m-1547 -8 l127 -72 0 -55 0 -56 -82 44 c-46 25
-122 67 -170 94 l-88 49 0 58 0 59 43 -25 c23 -13 99 -57 170 -96z m2657 61
l85 -48 0 -124 0 -123 -179 -84 c-99 -46 -183 -83 -188 -83 -4 0 -8 94 -8 208
l0 208 98 46 c53 25 99 46 102 47 3 0 43 -21 90 -47z m-3622 -88 c-5 -4 -117
49 -117 56 -1 3 25 17 57 31 l57 25 3 -54 c2 -30 2 -56 0 -58z m1525 97 c35
-18 34 -24 -8 -44 l-35 -17 0 41 c0 22 3 39 8 37 4 -2 19 -10 35 -17z m1787
-14 c0 -32 -3 -35 -77 -67 -43 -18 -126 -57 -184 -86 -59 -29 -109 -50 -113
-47 -16 17 -4 55 22 69 49 27 337 164 345 164 4 0 7 -15 7 -33z m-1131 -48
c-47 -25 -49 -24 -49 21 l0 40 42 -21 42 -21 -35 -19z m-485 -35 l116 -65 0
-185 c0 -101 -3 -184 -6 -184 -3 0 -77 41 -165 91 l-159 92 0 138 0 139 38 19
c20 11 42 20 49 21 6 0 63 -30 127 -66z m686 -38 l125 -73 3 -64 3 -64 -68
-29 c-37 -16 -121 -56 -185 -88 -65 -32 -120 -58 -123 -58 -3 0 -5 91 -5 203
l0 203 43 21 c23 12 51 22 62 22 11 0 76 -33 145 -73z m930 -146 l0 -210 -60
-30 c-33 -16 -66 -30 -75 -30 -8 0 -65 28 -125 63 l-110 62 0 92 0 93 53 26
c80 42 301 144 310 144 4 0 7 -94 7 -210z m574 62 c-27 -14 -73 -36 -101 -48
l-53 -24 0 109 0 109 102 -60 101 -61 -49 -25z m-2428 -109 c-6 -6 -235 119
-236 128 0 3 53 30 118 60 l117 55 3 -119 c1 -66 1 -122 -2 -124z m-588 173
c60 -36 125 -73 145 -82 20 -10 37 -21 37 -24 0 -7 -14 -14 -187 -96 l-113
-53 0 159 c0 88 2 160 5 160 3 0 54 -29 113 -64z m1240 -168 l-3 -203 -75 -37
c-55 -28 -84 -37 -108 -33 -27 3 -31 1 -23 -9 6 -7 7 -16 3 -21 -4 -4 2 -5 13
-2 11 3 36 -2 54 -12 l35 -19 -40 -20 c-21 -10 -49 -23 -61 -26 l-22 -7 -1
248 0 248 102 47 c57 26 109 47 116 47 10 1 12 -43 10 -201z m-2172 183 c11
-11 507 -287 593 -330 33 -17 62 -35 66 -41 3 -5 -18 -22 -48 -36 l-55 -27
-88 48 c-49 26 -210 113 -358 193 l-268 146 53 27 c56 29 88 35 105 20z m1242
-57 c2 -1 -10 -10 -28 -19 -18 -9 -33 -15 -35 -13 -1 2 0 17 2 35 5 34 6 34
61 -3z m1742 -3 c0 -26 -7 -31 -95 -70 -94 -41 -95 -41 -127 -25 l-32 17 109
53 c131 62 145 65 145 25z m-2887 -139 c150 -82 309 -169 354 -193 46 -24 83
-47 83 -50 0 -7 -690 -342 -705 -342 -22 0 -716 386 -708 394 4 4 85 44 178
87 94 44 249 118 345 165 96 47 176 86 178 86 2 1 126 -66 275 -147z m1301 56
l126 -71 0 -49 c0 -26 -3 -48 -7 -48 -18 1 -327 176 -331 187 -3 12 53 53 74
53 7 0 69 -32 138 -72z m1296 7 c0 -6 -77 -45 -90 -45 -5 0 -10 22 -10 50 l0
50 50 -25 c28 -14 50 -27 50 -30z m282 -55 l-4 -79 -56 31 c-103 57 -102 51
-20 91 40 19 75 36 78 36 3 1 4 -35 2 -79z m1128 43 c41 -24 57 -39 48 -43 -7
-4 -128 -61 -268 -126 -140 -65 -298 -140 -350 -165 l-94 -47 -46 23 c-96 50
-109 37 182 175 144 69 305 146 358 172 52 26 98 47 102 47 4 1 34 -15 68 -36z
m-2950 -202 l0 -219 -167 93 -168 93 -3 49 -3 49 158 77 c87 41 164 76 171 76
9 1 12 -49 12 -218z m1620 169 c-1 -6 -161 -81 -172 -80 -5 0 -8 13 -8 30 0
27 6 33 62 58 59 27 65 27 90 13 16 -9 28 -18 28 -21z m-1415 -71 l165 -91 0
-178 c0 -173 -1 -179 -22 -194 -12 -9 -29 -16 -36 -16 -15 0 -269 137 -276
149 -2 3 -7 99 -11 214 -5 144 -4 207 4 207 6 0 85 -41 176 -91z m1530 14 l85
-48 -2 -128 -3 -128 -168 -79 c-93 -44 -178 -82 -188 -85 -18 -6 -19 2 -19
205 l0 211 103 49 c56 27 103 49 104 49 2 1 41 -20 88 -46z m1399 -12 c152
-88 475 -266 529 -292 26 -13 47 -25 47 -28 0 -4 -103 -55 -228 -116 -125 -60
-281 -135 -347 -167 -66 -32 -125 -58 -131 -58 -10 0 -211 105 -542 285 -90
48 -159 91 -155 95 4 4 123 60 263 125 140 65 300 140 355 167 55 26 101 48
103 48 2 0 50 -27 106 -59z m-1714 7 c0 -33 -2 -34 -190 -125 l-190 -92 0 37
1 37 182 87 c100 48 185 87 190 87 4 1 7 -14 7 -31z m-860 -77 l155 -89 3 -51
c2 -28 -1 -51 -5 -51 -4 0 -78 40 -163 89 l-155 89 -3 51 c-2 28 1 51 5 51 4
0 78 -40 163 -89z m-920 -11 c0 -34 0 -34 -35 -18 -31 14 -32 22 -2 36 33 16
37 15 37 -18z m1780 -185 l0 -215 -32 -14 c-31 -13 -37 -12 -98 21 -36 19
-107 60 -157 90 l-93 55 0 49 0 50 182 89 c100 50 185 90 190 90 4 0 8 -97 8
-215z m528 160 c56 -31 104 -60 107 -66 6 -8 -37 -31 -172 -90 l-43 -18 0 114
c0 63 2 115 4 115 1 0 49 -25 104 -55z m-1395 -257 c-87 -42 -159 -77 -160
-77 -2 -1 -3 75 -3 168 l0 169 160 -91 160 -92 -157 -77z m-879 153 c171 -96
273 -153 431 -239 66 -36 122 -66 124 -68 2 -2 -22 -16 -54 -31 l-57 -28 -51
29 c-29 16 -185 101 -347 188 -162 88 -296 161 -298 163 -3 2 98 63 107 64 3
1 68 -35 145 -78z m1346 24 c0 -30 -5 -37 -40 -55 -49 -25 -62 -25 -91 -1
l-24 19 75 35 c41 20 76 36 78 36 1 1 2 -15 2 -34z m-1511 -72 c204 -109 576
-314 583 -321 4 -4 -156 -83 -354 -176 l-361 -170 -31 18 c-17 10 -110 61
-206 114 -96 52 -237 129 -313 170 l-139 76 244 118 c133 64 293 142 353 172
61 30 112 55 114 55 1 1 51 -25 110 -56z m2693 11 c33 -20 56 -40 51 -44 -4
-4 -163 -81 -352 -171 l-343 -163 -64 35 c-35 19 -64 37 -64 40 0 3 147 74
328 158 180 84 338 158 352 166 32 18 24 20 92 -21z m-1182 -29 c0 -40 -5 -42
-39 -16 l-24 19 29 15 c16 9 30 16 32 17 1 0 2 -16 2 -35z m-7 -55 c4 -4 5
-81 1 -172 l-7 -165 -94 -46 c-51 -26 -100 -47 -108 -47 -13 0 -15 30 -15 208
l0 207 73 31 72 32 35 -21 c19 -11 39 -23 43 -27z m1561 -120 c162 -88 320
-172 351 -187 30 -15 54 -31 53 -35 -2 -5 -82 -45 -178 -89 -96 -44 -253 -119
-349 -165 l-175 -84 -220 119 c-122 65 -278 150 -348 187 -69 38 -124 71 -122
74 4 4 674 332 691 339 2 1 135 -71 297 -159z m-1854 -55 c0 -113 -2 -205 -4
-205 -3 0 -31 15 -63 34 -32 18 -104 59 -160 90 -102 57 -103 57 -103 95 l0
37 158 76 c86 42 160 77 165 77 4 1 7 -91 7 -204z m467 74 c76 -44 140 -82
142 -85 5 -5 -243 -122 -277 -131 l-25 -6 6 93 c4 51 7 119 7 152 0 32 2 58 5
58 2 0 66 -36 142 -81z m-817 -59 c0 -22 -8 -25 -30 -10 -13 9 -13 11 0 20 22
15 30 12 30 -10z m-85 -54 c11 -7 103 -60 205 -116 102 -57 213 -121 248 -142
l62 -40 168 80 c92 44 227 108 300 142 l134 63 46 -22 c26 -12 57 -30 70 -39
23 -17 18 -20 -325 -180 -191 -89 -353 -162 -359 -162 -7 0 -72 33 -145 73
-297 163 -476 262 -513 283 l-39 22 49 26 c57 29 72 31 99 12z m-27 -120 c260
-141 517 -285 537 -299 19 -14 15 -18 -70 -57 -49 -22 -211 -98 -359 -168
l-268 -126 -32 18 c-17 10 -173 95 -346 188 -173 93 -317 172 -319 174 -2 2
61 34 140 71 79 38 238 114 354 170 115 56 214 102 218 102 5 1 70 -32 145
-73z m1641 -157 c185 -100 340 -185 345 -190 6 -5 -41 -32 -110 -65 -65 -30
-223 -105 -351 -166 -150 -71 -238 -108 -249 -104 -10 4 -130 68 -268 143
-138 74 -289 156 -335 181 -81 43 -83 45 -60 57 13 7 156 74 317 149 161 76
307 146 325 156 18 11 36 20 41 20 6 0 161 -82 345 -181z m-991 -202 c42 -24
147 -81 232 -127 85 -46 209 -112 274 -148 l119 -65 -39 -20 c-21 -11 -152
-73 -291 -138 -139 -65 -284 -134 -323 -154 l-70 -35 -92 53 c-51 29 -207 116
-345 192 -139 76 -253 142 -253 145 0 3 38 22 83 42 124 56 609 287 615 293 8
8 8 8 90 -38z"/>
<path d="M10197 10825 c-12 -12 -14 -21 -8 -33 6 -9 105 -111 220 -227 l211
-210 -672 -5 -673 -5 0 -25 0 -25 674 -5 673 -5 -221 -227 c-122 -125 -221
-231 -221 -236 0 -5 7 -16 17 -23 14 -12 44 15 270 245 139 143 253 266 253
275 0 9 -114 130 -253 269 -236 236 -255 253 -270 237z"/>
<path d="M7286 7011 c10 -10 291 -169 345 -195 68 -33 -2 13 -116 76 -60 34
-135 76 -166 95 -55 32 -83 43 -63 24z"/>
</g>
</svg>
