<?xml version="1.0" standalone="no"?>
<!DOCTYPE svg PUBLIC "-//W3C//DTD SVG 20010904//EN"
 "http://www.w3.org/TR/2001/REC-SVG-20010904/DTD/svg10.dtd">
<svg version="1.0" xmlns="http://www.w3.org/2000/svg"
 width="1437.000000pt" height="1488.000000pt" viewBox="0 0 1437.000000 1488.000000"
 preserveAspectRatio="xMidYMid meet">

<g transform="translate(0.000000,1488.000000) scale(0.100000,-0.100000)"
fill="#000000" stroke="none">
<path d="M5924 9900 c-22 -9 -139 -113 -483 -429 -123 -113 -254 -233 -290
-265 -212 -189 -604 -563 -612 -583 -21 -55 25 -113 88 -113 29 0 46 10 96 58
284 267 990 919 1166 1076 67 61 129 119 137 130 23 33 17 74 -15 107 -30 30
-50 34 -87 19z"/>
<path d="M6745 9250 c-44 -21 -215 -103 -380 -182 -457 -220 -807 -391 -1287
-630 -422 -210 -436 -218 -448 -252 -19 -57 22 -116 81 -116 12 0 306 141 653
314 591 294 890 440 1336 651 102 48 195 98 208 112 43 47 13 128 -53 138 -21
3 -54 -7 -110 -35z"/>
<path d="M11492 9063 c-31 -12 -37 -50 -42 -273 l-5 -224 -80 -12 c-140 -20
-317 -80 -432 -145 -178 -102 -365 -287 -459 -455 -77 -138 -140 -329 -159
-481 l-7 -53 -230 0 -230 0 -29 -29 c-36 -37 -38 -79 -5 -118 l24 -28 236 -3
235 -3 6 -47 c3 -26 19 -103 35 -171 52 -220 168 -422 336 -581 85 -81 227
-181 317 -224 115 -54 337 -116 417 -116 l30 0 0 -219 c0 -121 4 -231 10 -245
5 -15 25 -34 44 -43 29 -14 39 -14 66 -3 55 23 60 45 60 287 l0 219 90 12
c184 25 407 118 560 233 253 191 441 504 482 806 l12 91 101 7 c55 3 162 5
237 3 133 -3 137 -2 162 21 18 17 26 35 26 57 0 88 -18 94 -298 94 l-228 0
-13 93 c-20 154 -97 355 -193 504 -184 287 -534 504 -870 541 l-63 7 -5 230
c-3 127 -7 231 -8 232 -32 33 -51 43 -81 42 -20 0 -42 -3 -49 -6z m-40 -854
l3 -181 28 -24 c39 -33 81 -31 118 5 l29 29 0 176 0 176 28 0 c57 0 240 -52
328 -94 341 -162 555 -458 608 -838 l5 -38 -180 0 c-178 0 -180 0 -204 -25
-18 -17 -25 -35 -25 -62 1 -81 33 -93 246 -93 l166 0 -6 -27 c-3 -16 -8 -48
-12 -73 -17 -118 -94 -301 -176 -422 -96 -142 -289 -299 -449 -366 -78 -32
-202 -66 -281 -77 l-48 -6 0 176 0 177 -29 29 c-37 36 -79 38 -118 5 l-28 -24
-3 -182 -3 -181 -47 7 c-289 42 -577 215 -729 439 -99 146 -172 340 -176 465
l-2 65 185 6 c102 3 186 6 187 7 1 1 10 16 18 33 21 39 12 82 -22 109 -24 18
-40 20 -203 20 l-177 0 13 83 c54 334 267 625 569 775 112 55 284 109 357 111
l27 1 3 -181z"/>
<path d="M11418 7711 c-104 -34 -185 -103 -233 -198 -101 -203 -20 -446 183
-545 62 -31 73 -33 167 -33 80 1 111 5 158 24 81 32 168 115 209 199 31 62 33
74 33 167 -1 137 -24 196 -114 286 -49 49 -81 72 -126 89 -83 32 -201 36 -277
11z m207 -170 c56 -25 120 -100 134 -157 35 -138 -76 -278 -219 -278 -126 0
-220 98 -220 229 0 158 166 270 305 206z"/>
<path d="M1675 8779 c-141 -20 -291 -101 -388 -209 -58 -64 -111 -170 -137
-274 -19 -77 -20 -112 -20 -1078 0 -1117 -3 -1071 71 -1225 30 -63 56 -99 108
-150 127 -125 254 -181 433 -192 58 -3 524 -4 1035 -1 l928 5 73 27 c162 59
287 164 359 303 84 162 78 70 78 1235 l0 1035 -27 80 c-39 114 -92 197 -175
275 -77 72 -172 128 -268 156 -56 17 -129 18 -1035 20 -536 1 -1002 -2 -1035
-7z m2020 -184 c169 -44 303 -188 340 -362 12 -56 15 -229 15 -1003 0 -601 -4
-958 -11 -999 -23 -142 -121 -287 -237 -349 -118 -63 -91 -62 -1137 -62 -1062
0 -1018 -3 -1141 71 -108 65 -191 192 -214 327 -7 47 -10 356 -8 1042 l3 975
23 59 c58 154 172 260 321 301 36 10 264 13 1016 14 842 1 979 -1 1030 -14z"/>
<path d="M2556 8150 c-382 -60 -657 -304 -773 -685 -24 -82 -27 -104 -27 -250
0 -146 3 -168 27 -249 96 -310 298 -530 579 -631 126 -45 222 -59 360 -52 241
11 455 110 622 288 171 182 258 399 257 644 0 438 -284 808 -700 915 -96 24
-257 34 -345 20z m349 -204 c118 -38 198 -89 301 -191 79 -79 98 -105 143
-195 67 -138 85 -225 78 -380 -6 -129 -21 -188 -78 -305 -49 -101 -110 -179
-196 -250 -170 -141 -406 -203 -613 -161 -168 35 -284 100 -409 232 -86 91
-155 214 -188 334 -24 89 -24 281 0 370 79 290 294 499 582 566 96 22 281 13
380 -20z"/>
<path d="M7300 8365 c-239 -51 -459 -99 -488 -105 -63 -14 -97 -54 -87 -105 5
-32 46 -75 72 -75 28 0 1005 211 1024 221 84 45 53 160 -43 158 -24 0 -239
-42 -478 -94z"/>
<path d="M5960 8085 c-793 -168 -868 -185 -1060 -225 -214 -46 -240 -59 -240
-121 0 -33 46 -89 73 -89 9 0 282 56 609 125 326 69 681 143 788 165 292 60
288 59 310 87 42 54 12 127 -55 137 -17 2 -208 -33 -425 -79z"/>
<path d="M8885 7658 c-32 -17 -45 -39 -45 -74 0 -43 27 -71 120 -128 l74 -46
-2157 0 -2158 0 -24 -25 c-34 -33 -34 -87 0 -120 l24 -25 2151 0 c1182 0 2150
-3 2150 -7 0 -5 -35 -28 -77 -53 -91 -54 -112 -88 -89 -144 17 -41 62 -61 104
-45 15 6 68 36 117 68 50 31 143 91 207 132 128 81 148 105 132 162 -10 35
-12 36 -298 213 -93 57 -179 104 -190 104 -12 0 -30 -6 -41 -12z"/>
<path d="M4699 6985 c-59 -32 -54 -129 7 -152 16 -6 198 -52 404 -102 337 -81
1012 -245 1385 -337 168 -41 194 -42 224 -10 46 49 21 127 -46 145 -21 5 -218
53 -438 106 -220 54 -644 157 -943 231 -298 74 -548 134 -555 134 -6 -1 -24
-7 -38 -15z"/>
<path d="M4666 6528 c-38 -33 -44 -78 -14 -111 12 -15 115 -85 228 -155 113
-71 277 -175 365 -232 186 -120 283 -182 730 -467 182 -116 383 -245 449 -287
129 -82 165 -92 204 -56 57 54 35 107 -73 177 -326 210 -505 326 -900 579
-247 158 -506 323 -575 367 -339 218 -364 229 -414 185z"/>
<path d="M7275 6335 c-33 -32 -34 -87 -2 -118 13 -14 47 -28 82 -36 33 -7 131
-30 218 -52 87 -21 165 -39 173 -39 28 0 74 56 74 89 0 63 -25 76 -258 131
-117 27 -225 50 -238 50 -14 0 -36 -11 -49 -25z"/>
</g>
</svg>
