<?xml version="1.0" standalone="no"?>
<!DOCTYPE svg PUBLIC "-//W3C//DTD SVG 20010904//EN"
 "http://www.w3.org/TR/2001/REC-SVG-20010904/DTD/svg10.dtd">
<svg version="1.0" xmlns="http://www.w3.org/2000/svg"
 width="2048.000000pt" height="2048.000000pt" viewBox="0 0 2048.000000 2048.000000"
 preserveAspectRatio="xMidYMid meet">

<g transform="translate(0.000000,2048.000000) scale(0.100000,-0.100000)"
fill="#000000" stroke="none">
<path d="M9021 16476 c-53 -19 -111 -74 -137 -130 -62 -133 4 -304 133 -347
l33 -11 0 -697 0 -697 525 -524 525 -524 -4 -130 c-2 -72 -5 -235 -5 -362 l-1
-231 -57 -9 c-47 -7 -60 -14 -70 -34 -9 -18 -13 -100 -13 -302 l0 -278 -84 0
-84 0 -4 283 c-3 155 -8 290 -12 299 -11 24 -63 39 -122 36 l-49 -3 -3 285 -2
285 -709 710 -710 710 -1 265 c-1 146 -2 344 -1 441 l1 176 40 18 c47 21 106
82 126 131 18 44 18 152 -1 197 -47 114 -182 180 -302 148 -147 -40 -225 -215
-159 -357 26 -55 82 -108 133 -125 l33 -11 0 -467 0 -467 716 -713 716 -714
-8 -253 -7 -254 -23 0 c-36 0 -72 -20 -78 -44 -3 -11 -6 -146 -6 -299 l0 -278
-82 3 -83 3 -5 292 c-4 221 -8 295 -18 305 -9 9 -61 14 -185 16 -164 3 -174 2
-200 -18 l-27 -21 0 -289 0 -288 -50 -11 c-73 -16 -146 -56 -207 -114 -93 -88
-132 -203 -133 -389 l0 -78 -288 0 c-334 0 -319 5 -324 -95 l-3 -60 -185 -3
-185 -2 -567 563 -566 564 -543 6 c-298 4 -629 7 -735 7 l-192 0 -7 31 c-18
81 -135 159 -241 159 -238 0 -342 -296 -157 -450 39 -31 116 -60 163 -60 92 0
194 65 227 145 l18 45 704 0 703 0 565 -562 564 -563 217 -5 217 -5 5 -57 c3
-31 11 -63 18 -70 10 -10 82 -14 304 -15 l291 -3 -1 -87 -1 -88 -287 -3 c-318
-3 -316 -2 -328 -67 -4 -18 -14 -36 -22 -39 -9 -3 -95 -6 -192 -6 l-177 0
-560 560 -560 560 -417 0 -417 0 -19 43 c-60 135 -231 193 -360 122 -179 -98
-175 -352 7 -447 130 -68 308 -4 351 126 l12 36 391 0 392 0 560 -560 560
-560 222 0 223 0 0 -74 c0 -58 4 -79 19 -97 l19 -24 291 -3 291 -3 0 -91 0
-91 -282 6 c-182 4 -288 2 -300 -4 -10 -6 -23 -21 -28 -35 l-10 -24 -1529 0
-1529 0 -12 36 c-39 117 -194 184 -332 142 -100 -30 -175 -147 -165 -259 12
-140 115 -233 258 -232 106 0 186 53 235 157 l18 36 1528 -2 1529 -3 2 -102
c2 -83 5 -106 20 -120 16 -17 42 -18 307 -17 l290 1 0 -89 0 -88 -290 0 c-277
0 -291 -1 -310 -20 -12 -12 -20 -33 -20 -55 l0 -35 -577 0 -578 -1 -319 -308
-319 -309 -56 -6 c-31 -3 -395 -4 -810 -1 l-753 5 -25 51 c-46 91 -132 134
-254 127 -132 -7 -220 -96 -227 -230 -5 -85 14 -140 65 -193 99 -102 256 -108
358 -14 24 22 54 61 65 85 l22 44 832 0 833 0 321 310 321 310 553 0 554 0 -4
-69 c-4 -64 -2 -72 21 -95 l26 -26 285 0 285 0 3 -85 3 -85 -60 0 c-33 0 -166
-3 -295 -6 -269 -7 -270 -7 -270 -90 l0 -44 -407 0 -408 0 -455 -445 -455
-445 -460 0 -460 0 -23 49 c-68 149 -283 188 -406 73 -42 -39 -76 -118 -76
-176 0 -78 20 -126 75 -183 39 -40 62 -55 108 -68 131 -38 259 23 311 148 l15
37 489 0 488 0 451 445 451 445 383 -2 383 -3 -3 -52 c-3 -60 18 -108 51 -119
12 -4 146 -5 297 -3 l274 4 -2 -70 c-6 -231 95 -396 287 -465 l62 -23 0 -284
0 -284 25 -24 c22 -23 32 -25 115 -25 l90 0 0 -136 0 -135 -277 -272 c-153
-149 -392 -385 -532 -523 l-254 -251 -5 -377 -5 -377 -36 -15 c-105 -44 -166
-169 -141 -289 24 -116 124 -195 247 -195 105 0 184 46 228 133 64 129 1 298
-132 353 l-33 14 0 349 0 348 530 522 530 523 0 164 c0 157 1 164 20 164 11 0
29 9 40 20 19 19 20 33 20 305 l0 285 85 0 85 0 0 -288 c0 -267 1 -290 18
-305 16 -15 45 -17 195 -17 164 0 179 2 197 20 19 19 20 33 20 306 0 224 3
285 13 282 9 -4 13 -131 15 -580 l2 -576 -465 -460 -465 -460 0 -185 0 -185
-35 -12 c-19 -6 -55 -31 -79 -56 -129 -129 -85 -351 83 -421 48 -20 137 -20
186 1 49 21 110 78 136 128 49 96 29 212 -51 289 -26 26 -63 52 -81 58 l-34
11 2 162 3 163 460 455 461 455 -1 303 0 302 90 0 90 0 0 -419 0 -418 -285
-278 -285 -277 0 -644 0 -644 -37 -15 c-99 -42 -153 -124 -153 -235 0 -53 6
-78 28 -121 87 -172 330 -182 439 -17 22 33 28 55 31 114 3 41 -1 89 -8 109
-17 51 -74 111 -132 141 l-48 24 0 611 0 611 286 282 286 281 -1 448 c-2 376
0 447 12 447 8 0 21 8 30 18 15 16 17 53 17 305 l0 287 65 0 65 0 0 -279 c0
-348 -7 -331 141 -331 l99 0 0 -614 0 -614 68 -63 c37 -34 163 -155 279 -268
200 -194 213 -208 213 -242 0 -31 -4 -38 -31 -49 -50 -21 -115 -94 -134 -151
-45 -135 32 -284 169 -324 63 -19 80 -19 147 1 144 43 219 218 150 353 -33 64
-80 104 -153 131 -26 9 -28 13 -28 69 l0 59 -217 214 c-120 118 -246 241 -280
273 l-63 58 0 584 c0 512 2 583 15 583 8 0 24 9 35 20 19 19 20 33 20 305 l0
285 30 0 30 0 0 -264 c0 -158 4 -275 10 -293 14 -39 46 -53 119 -53 44 0 60
-4 65 -16 3 -9 6 -267 6 -574 l0 -558 350 -343 350 -343 0 -777 0 -777 -45
-22 c-124 -60 -179 -224 -116 -348 28 -54 95 -109 155 -127 62 -19 90 -19 152
0 105 31 174 126 174 240 -1 103 -50 184 -141 230 l-46 24 -7 300 c-4 165 -4
305 -1 312 4 6 4 234 0 507 l-8 497 -348 344 -349 343 0 544 0 544 29 0 c15 0
40 9 55 21 l26 20 0 285 0 284 85 0 85 0 0 -280 0 -281 25 -24 c21 -22 33 -25
95 -25 l70 0 0 -482 1 -483 449 -452 450 -453 0 -375 0 -376 -37 -15 c-100
-42 -153 -123 -153 -233 0 -158 124 -274 275 -258 106 11 204 93 224 188 14
65 14 76 -5 138 -19 66 -79 133 -140 158 l-44 18 0 406 0 406 -450 451 -450
451 0 454 0 454 42 6 c78 10 78 11 78 327 l0 277 43 6 c172 25 301 131 358
295 14 40 21 87 22 159 l2 103 285 0 c341 0 330 -3 330 96 l0 64 295 0 296 0
667 -665 667 -665 535 0 535 0 29 -56 c46 -88 120 -133 222 -134 134 -1 240
89 259 222 15 98 -46 213 -138 259 -127 65 -304 2 -353 -127 l-17 -44 -511 0
-512 0 -669 670 -670 670 -318 0 -317 0 2 49 c2 37 -3 55 -16 70 -18 20 -31
21 -310 23 l-291 3 -3 88 -3 87 295 0 c293 0 295 0 310 22 10 14 16 44 16 80
l0 58 548 0 547 -1 465 -459 465 -459 405 -1 406 0 12 -32 c42 -118 184 -184
314 -148 100 28 178 135 178 244 0 235 -278 341 -445 169 -19 -20 -40 -54 -47
-75 l-11 -38 -381 0 -381 1 -467 464 -467 465 -571 0 -570 0 0 54 c0 88 6 86
-333 86 l-288 0 3 88 3 87 180 0 c99 0 518 -2 931 -3 l751 -3 409 -409 408
-410 108 0 108 0 16 -40 c31 -77 145 -150 234 -150 60 0 131 31 180 78 118
114 95 303 -48 389 -141 84 -313 30 -375 -118 l-14 -35 -81 3 -81 2 -402 406
-402 405 -653 0 -654 0 0 138 c0 121 -2 141 -18 155 -16 15 -56 17 -306 19
l-288 3 -4 88 -3 87 285 0 285 0 24 25 c20 19 25 34 25 75 l0 50 418 0 418 0
239 225 240 224 992 4 992 3 16 -42 c19 -50 70 -99 133 -126 68 -30 173 -23
238 17 71 44 107 108 112 197 3 48 -1 82 -12 112 -51 133 -230 197 -364 130
-56 -28 -92 -67 -117 -127 l-15 -37 -1008 0 -1007 0 -100 -91 c-55 -51 -165
-153 -244 -228 l-145 -136 -393 -1 -393 -1 0 63 c0 97 10 94 -332 94 l-288 0
0 90 0 89 296 3 c339 3 324 -1 324 95 l0 53 262 0 261 0 71 67 c116 110 286
274 545 527 l244 238 86 -6 c47 -3 319 -5 604 -6 l518 0 15 -35 c21 -50 82
-115 129 -136 55 -25 147 -24 205 2 99 45 154 126 153 229 0 108 -45 179 -147
233 -57 30 -165 30 -222 0 -48 -25 -101 -82 -120 -130 l-14 -33 -632 0 -631 0
-106 -103 c-58 -57 -249 -242 -424 -410 l-319 -307 -239 0 -239 0 0 53 c0 89
10 86 -326 89 l-289 3 -6 130 c-7 143 -12 166 -60 255 -57 106 -164 181 -293
203 l-65 11 -3 289 c-3 335 2 317 -105 317 l-63 0 0 186 0 186 143 136 c78 75
267 260 420 411 l277 276 0 492 0 493 33 14 c49 20 103 71 126 120 30 61 29
164 -3 232 -74 160 -298 191 -416 58 -46 -53 -60 -93 -60 -171 0 -107 56 -195
150 -238 l40 -18 0 -466 0 -467 -212 -210 c-117 -116 -304 -298 -416 -406
-112 -108 -205 -204 -207 -214 -2 -11 -4 -105 -4 -210 l-1 -191 -47 -6 c-84
-9 -84 -8 -83 -321 0 -149 0 -277 0 -283 0 -9 -24 -13 -85 -13 l-84 0 -3 290
c-2 220 -6 292 -16 302 -7 7 -43 15 -80 18 l-67 5 -2 190 -2 190 420 409 419
409 0 118 0 117 37 13 c20 6 58 33 84 59 86 86 100 201 38 309 -53 92 -138
137 -243 129 -71 -6 -112 -24 -159 -72 -125 -125 -93 -329 66 -410 l57 -29 0
-87 0 -87 -417 -409 -418 -408 -5 -221 -5 -220 -52 -3 c-32 -2 -56 -9 -65 -19
-10 -12 -14 -83 -16 -305 l-3 -289 -84 3 -83 3 -6 290 c-7 314 -7 315 -63 315
l-23 0 0 369 0 369 210 204 210 204 0 845 0 845 33 12 c17 6 49 28 70 49 76
73 101 160 74 254 -65 223 -377 252 -473 44 -62 -131 2 -300 130 -346 l36 -13
2 -819 3 -819 -212 -205 -213 -205 0 -394 0 -393 -130 1 -130 1 0 396 0 396
-520 520 -520 520 0 672 0 672 23 7 c50 15 108 66 134 117 69 136 9 304 -132
363 -41 17 -137 17 -184 0z m157 -136 c18 -11 40 -37 48 -57 40 -95 -47 -200
-145 -173 -99 26 -126 146 -51 222 35 35 98 38 148 8z m-997 -319 c35 -34 39
-44 39 -88 0 -55 -17 -86 -60 -108 -84 -43 -180 15 -180 110 0 75 49 124 124
125 32 0 45 -7 77 -39z m2838 -19 c79 -42 92 -140 27 -199 -29 -27 -44 -33
-79 -33 -59 0 -108 33 -126 86 -13 38 -13 44 7 85 36 75 102 98 171 61z m1542
-648 c45 -23 73 -91 59 -143 -22 -82 -113 -117 -187 -71 -40 24 -56 54 -56
105 0 96 98 154 184 109z m-584 -749 c36 -24 56 -62 56 -106 0 -50 -26 -87
-77 -113 -32 -16 -44 -17 -75 -8 -58 18 -96 64 -96 117 0 101 109 164 192 110z
m-2921 -1931 c-3 -9 -6 -116 -6 -239 l0 -224 -84 -3 -85 -3 -5 45 c-2 25 -5
134 -5 243 l0 197 95 0 c84 0 95 -2 90 -16z m594 -229 l0 -245 -85 0 -85 0 0
245 0 245 85 0 85 0 0 -245z m600 0 l0 -246 -82 3 -83 3 -3 243 -2 242 85 0
85 0 0 -245z m320 5 l0 -240 -22 0 c-13 0 -53 -3 -90 -7 l-68 -6 0 247 0 246
90 0 90 0 0 -240z m598 -1 l-3 -241 -82 -5 -83 -5 0 246 0 246 85 0 85 0 -2
-241z m602 1 l0 -240 -62 0 c-35 0 -73 -3 -85 -6 l-23 -6 0 246 0 246 85 0 85
0 0 -240z m-7180 184 c79 -47 80 -178 0 -219 -64 -33 -149 -5 -176 60 -18 44
-18 59 3 102 31 66 112 92 173 57z m11238 -308 c86 -44 102 -151 32 -210 -43
-36 -81 -41 -133 -18 -70 31 -95 104 -59 170 34 63 102 88 160 58z m-10631
-263 c66 -31 92 -112 56 -174 -10 -16 -37 -39 -60 -50 -36 -17 -48 -19 -76
-10 -113 38 -128 191 -24 236 42 19 62 18 104 -2z m6814 -9 c60 -28 121 -89
156 -156 l28 -53 0 -1650 0 -1650 -21 -46 c-33 -70 -86 -123 -155 -154 l-62
-27 -1611 1 c-1837 2 -1670 -7 -1768 91 -96 97 -89 -67 -86 1805 l3 1640 24
45 c45 87 121 148 208 169 22 5 725 8 1638 8 l1600 -2 46 -21z m-3651 -654 l0
-90 -245 0 -245 0 0 90 0 90 245 0 245 0 0 -90z m4460 -5 l0 -85 -249 0 -248
0 1 85 1 85 248 0 247 0 0 -85z m3722 -47 c62 -23 89 -128 47 -182 -11 -14
-34 -33 -49 -41 -83 -43 -180 22 -180 119 0 44 48 102 94 114 32 9 40 8 88
-10z m-8182 -558 l0 -90 -245 0 -245 0 0 90 0 90 245 0 245 0 0 -90z m4455 -2
l0 -88 -247 0 -248 0 5 88 c2 48 4 87 5 87 0 0 109 0 243 0 l242 0 0 -87z
m-8315 -416 c14 -10 33 -35 44 -56 16 -33 17 -43 7 -78 -33 -108 -167 -130
-228 -39 -29 43 -29 89 0 132 44 66 118 83 177 41z m3860 -192 l0 -90 -245 0
-245 0 0 90 0 90 245 0 245 0 0 -90z m4460 0 l0 -90 -245 0 -245 0 0 59 c0 32
-3 73 -6 90 l-6 31 251 0 251 0 0 -90z m-4460 -600 l0 -90 -245 0 -245 0 0 90
0 90 245 0 245 0 0 -90z m4460 0 l0 -90 -249 0 -249 0 3 88 c2 48 4 88 4 90 1
1 111 2 246 2 l245 0 0 -90z m2731 -289 c33 -32 39 -45 39 -80 0 -56 -22 -95
-64 -115 -45 -21 -82 -20 -121 4 -32 20 -65 72 -65 104 0 65 65 126 134 126
31 0 45 -7 77 -39z m-11431 -187 c147 -59 71 -276 -82 -233 -108 29 -119 182
-17 232 42 21 49 21 99 1z m4240 -134 l0 -90 -245 0 -245 0 0 90 0 90 245 0
245 0 0 -90z m4460 0 l0 -90 -247 0 -248 0 3 85 3 85 217 3 c119 1 229 3 245
5 l27 2 0 -90z m3268 -200 c70 -43 78 -136 17 -197 -27 -27 -41 -33 -75 -33
-132 0 -179 162 -67 230 41 25 83 25 125 0z m-11180 -570 c67 -41 78 -130 23
-189 -53 -56 -129 -54 -181 6 -29 33 -32 41 -28 85 10 98 104 148 186 98z
m4102 -249 l0 -239 -82 -4 c-46 -2 -85 -3 -88 -2 -3 1 -4 111 -2 243 l3 241
84 0 85 0 0 -239z m607 87 c-4 -83 -7 -193 -7 -245 l0 -93 -85 0 -85 0 0 245
0 245 92 0 91 0 -6 -152z m511 -90 l-3 -243 -87 -3 -88 -3 0 246 0 245 90 0
90 0 -2 -242z m559 0 l2 -238 -22 0 c-12 0 -52 -3 -89 -7 l-68 -6 0 247 0 247
88 -3 87 -3 2 -237z m483 2 l0 -240 -62 0 c-35 0 -73 -3 -85 -6 l-23 -6 0 246
0 246 85 0 85 0 0 -240z m610 0 l0 -240 -90 0 -90 0 0 240 0 240 90 0 90 0 0
-240z m4471 -195 c36 -19 69 -70 69 -108 0 -39 -24 -81 -61 -107 -46 -33 -122
-24 -160 18 -96 107 25 262 152 197z m-7292 -2153 c38 -20 71 -73 71 -112 0
-40 -34 -92 -74 -113 -49 -26 -99 -16 -143 28 -27 27 -33 41 -33 74 0 54 22
97 63 121 40 25 73 25 116 2z m2372 -18 c42 -40 55 -90 36 -137 -36 -84 -141
-102 -204 -33 -103 112 59 275 168 170z m-3346 -208 c80 -34 100 -151 37 -207
-43 -39 -92 -46 -138 -22 -40 21 -74 73 -74 113 0 39 33 92 71 112 41 22 59
22 104 4z m4710 -570 c13 -8 31 -35 40 -60 21 -56 9 -103 -38 -142 -27 -23
-38 -26 -84 -22 -87 7 -138 78 -114 157 26 89 116 119 196 67z m-3075 -52 c82
-49 79 -178 -6 -219 -67 -32 -143 -4 -170 62 -21 50 -10 99 31 140 27 27 41
33 75 33 23 0 54 -7 70 -16z m2280 -710 c105 -63 63 -232 -58 -234 -68 0 -132
60 -132 123 0 42 28 95 59 112 35 19 97 19 131 -1z"/>
<path d="M9030 11731 c-73 -23 -131 -74 -171 -151 l-24 -45 -3 -1319 c-3
-1483 -8 -1374 73 -1464 27 -30 66 -59 97 -73 l53 -24 1295 0 1295 0 46 21
c56 26 111 82 141 143 l23 46 0 1325 0 1325 -21 46 c-28 60 -76 114 -133 147
l-46 27 -1300 2 c-715 1 -1311 -2 -1325 -6z m2620 -143 c18 -13 43 -36 54 -51
l21 -28 3 -1308 2 -1308 -23 -34 c-12 -18 -38 -44 -56 -56 l-34 -23 -1270 0
c-1262 0 -1269 0 -1306 21 -20 11 -48 36 -61 56 l-25 37 -3 1290 -2 1291 22
45 c13 25 38 55 57 67 l34 23 1277 0 1277 0 33 -22z"/>
</g>
</svg>
